<?xml version="1.0" encoding="UTF-8" standalone="no"?>
<svg
   viewBox="0 0 48 48"
   version="1.1"
   id="svg1"
   sodipodi:docname="salamander_colors_banner.svg"
   width="48"
   height="48"
   inkscape:version="1.3.2 (091e20e, 2023-11-25, custom)"
   xmlns:inkscape="http://www.inkscape.org/namespaces/inkscape"
   xmlns:sodipodi="http://sodipodi.sourceforge.net/DTD/sodipodi-0.dtd"
   xmlns="http://www.w3.org/2000/svg"
   xmlns:svg="http://www.w3.org/2000/svg">
  <defs
     id="defs1" />
  <sodipodi:namedview
     id="namedview1"
     pagecolor="#ffffff"
     bordercolor="#000000"
     borderopacity="0.25"
     inkscape:showpageshadow="2"
     inkscape:pageopacity="0.0"
     inkscape:pagecheckerboard="0"
     inkscape:deskcolor="#d1d1d1"
     inkscape:zoom="6.6117648"
     inkscape:cx="17.090747"
     inkscape:cy="21.703736"
     inkscape:window-width="1920"
     inkscape:window-height="1009"
     inkscape:window-x="-8"
     inkscape:window-y="-8"
     inkscape:window-maximized="1"
     inkscape:current-layer="g2" />
  <g
     transform="matrix(0.00392785,0,0,-0.00392785,9.3495696,42.218051)"
     fill="#000000"
     stroke="none"
     id="g2"
     style="fill:#e0061d;fill-opacity:1;stroke-width:33.9459">
    <path
       d="m 4684.8731,9151.4933 c -83.6649,-128.155 -27.1993,-288.0174 117.7205,-333.3387 34.0294,-11.0653 52.1088,-21.1018 56.0115,-33.1809 2.5728,-9.7757 13.426,-51.6252 23.5114,-93.918 25.2296,-109.3059 68.7761,-232.606 119.201,-344.7689 49.8628,-109.4161 112.8335,-198.9796 183.7112,-261.4558 23.0743,-20.4612 41.1856,-37.6456 40.5366,-40.0678 -1.0923,-1.6544 -20.9278,-41.7711 -43.4783,-89.5976 -74.2051,-153.4059 -148.1876,-356.8463 -189.7801,-524.1829 l -40.7378,-161.7245 -92.707,-23.8359 c -462.7666,-118.7367 -1047.003,-371.0755 -1335.3,-577.4496 -223.5089,-160.7788 -398.4235,-343.6648 -563.4817,-591.4979 -274.7329,-412.5038 -452.3384,-954.2274 -520.9836,-1590.6982 -14.6963,-132.357 -21.5088,-257.0911 -31.5152,-553.6095 -18.9523,-584.2347 -50.6077,-884.0385 -125.2687,-1182.0545 l -34.0419,-134.3125 -90.8871,12.0217 c -49.2985,7.3683 -145.1169,15.5192 -212.1067,19.8395 -107.573,5.4593 -164.4308,6.4157 -337.8377,3.5542 -34.5278,-0.4836 -42.6809,2.999 -43.5124,16.8513 -1.0457,37.2745 -46.096,152.5404 -85.5489,220.8748 -73.1431,126.6874 -190.123,269.015 -325.6171,395.5348 -71.5586,67.2017 -72.4452,68.7373 -64.6251,90.6558 9.6484,31.1639 4.9927,88.8764 -10.1428,129.2772 -55.1909,145.242 -240.89966,188.5123 -355.34878,83.5331 -101.63412,-93.4856 -94.64085,-256.3171 15.14237,-338.3043 42.80826,-31.5901 114.38157,-52.7152 162.84861,-46.2312 27.58573,3.6418 30.89454,1.4572 49.30699,-33.9806 63.01101,-123.3234 99.56041,-255.7821 87.73591,-316.8671 -7.1075,-33.7918 -13.6614,-43.7182 -38.23104,-57.9035 -62.19203,-35.9065 -139.90768,-18.3277 -435.57362,96.592 -112.69538,44.4751 -225.27195,86.9713 -248.72594,93.9048 -33.58612,10.2975 -50.13,21.2206 -71.70063,49.7162 -111.16203,144.6629 -326.235991,114.6736 -388.82859,-53.5262 -29.45216,-78.4285 -3.72418,-176.1855 62.989959,-242.0892 54.45253,-53.5319 175.26067,-67.7297 244.806201,-28.6013 19.63841,10.3145 33.60943,9.1671 76.79732,-8.8953 29.30384,-11.7461 156.43675,-38.672 282.88896,-60.8724 126.45211,-22.2003 253.90961,-47.9151 282.77007,-58.8934 133.48971,-46.8018 168.86602,-113.3949 108.13968,-206.8083 -23.5876,-37.1642 -111.51995,-120.6916 -173.11807,-166.4926 -41.87282,-30.3177 -44.61954,-30.8798 -63.70437,-17.3287 -65.96958,46.8825 -161.87505,49.8645 -237.88748,5.9787 -109.02794,-62.9474 -141.56603,-189.2255 -78.9432,-299.4646 61.29286,-107.9356 190.43664,-141.8905 299.14001,-80.1543 59.8886,34.5767 96.2913,83.2346 106.90475,144.6441 l 7.84342,41.3829 112.46398,32.1715 c 208.12329,59.7597 422.76019,163.2056 520.79289,250.5169 24.0945,22.1009 46.8911,39.3574 50.8489,39.5949 12.76,-0.8229 185.7895,-110.7903 265.5563,-169.158 70.6082,-51.3706 216.5271,-172.8954 224.5063,-186.7158 4.8762,-8.4458 -73.9528,-111.287 -151.4287,-196.9672 -62.2704,-67.6877 -70.5974,-74.5428 -181.1609,-138.3767 -525.9448,-303.6544 -1024.62656,-333.5868 -1506.70769,-90.8344 -349.8259,176.8105 -720.30005,545.4232 -953.79555,948.0762 -75.8027,131.2943 -93.0042,166.4074 -117.5443,244.3755 -135.58786,419.2542 -80.45106,903.5791 157.338,1388.9371 193.8675,396.5283 505.63105,741.3467 807.7973989,895.3277 196.6210911,99.187 352.3600211,118.465 528.0004111,64.2631 131.15437,-40.9839 224.77343,-98.5203 318.02137,-196.1965 69.93597,-73.2573 157.02676,-220.5566 236.24226,-402.091 73.334,-169.5741 151.6459,-296.3484 213.0088,-345.8907 85.0862,-67.5814 207.4619,-88.0404 356.9946,-58.0131 54.1662,10.7981 79.7412,21.4689 160.3605,68.0145 93.6719,54.0815 97.0676,57.0657 134.6496,112.547 73.3038,108.8648 88.4115,247.6018 45.5605,412.2531 -27.2953,104.0182 -149.6436,315.9317 -242.4801,419.9879 -219.7109,245.7901 -508.4286,430.2405 -859.53541,548.9822 C 355.49932,5826.7966 -123.05198,5746.0386 -601.04274,5391.2427 -1092.7353,5026.4888 -1539.6571,4312.8955 -1651.7914,3712.7405 -1817.7372,2824.5594 -1491.7757,1907.1179 -797.18424,1306.926 -493.0532,1044.357 -174.35945,870.04703 174.43545,776.58772 768.31456,616.80928 1395.7899,691.41237 2162.1546,1013.0722 c 125.1285,52.7921 277.6836,144.9648 413.5762,250.0394 43.2895,33.1832 81.6479,62.4955 86.2547,65.1553 9.2136,5.3195 88.2995,-48.3227 360.1255,-242.5255 l 169.7844,-122.0783 -26.4213,-42.89524 C 3074.3137,771.9051 3010.6628,495.60189 3004.0436,228.67997 c -0.7507,-53.66775 -1.8431,-55.32213 -37.9297,-76.1568 -74.4769,-42.99922 -118.952,-155.6945676 -96.2402,-242.908068 21.5877,-81.720102 100.5316,-152.847822 181.4054,-163.484512 154.4812,-19.32633 282.0933,117.82219 250.7361,269.658412 -6.1827,30.21368 -49.2689,99.521638 -78.3119,126.774358 -10.9316,10.06839 -7.9241,26.13711 19.2014,83.77118 44.982,97.63198 96.5265,178.57803 140.2276,218.14118 48.5136,45.41288 84.1338,47.55091 131.6995,9.49383 48.4522,-39.59269 92.6393,-133.85848 173.2017,-370.920778 37.4274,-107.38209 77.9579,-220.138802 90.4018,-248.785052 19.7742,-44.88889 21.8167,-59.06567 12.7304,-92.97628 -14.603,-54.4992 -12.2274,-94.07712 11.0931,-145.10843 49.0951,-109.8594 178.3024,-158.10989 293.3307,-109.1018 150.5847,65.44169 173.3767,281.30047 38.8964,377.69349 -19.0848,13.55106 -43.0139,28.40016 -52.7027,30.99625 -13.7653,4.337442 -19.8526,13.107772 -28.9008,44.738282 -6.5943,23.8337 -66.1459,135.84591 -151.8198,286.010678 -156.1573,272.24536 -170.7307,309.89951 -152.6768,379.69964 21.861,79.16436 134.5075,95.06147 348.1583,49.49631 l 50.3039,-10.88278 4.8847,-35.05806 c 10.6009,-83.96839 87.7165,-164.34156 175.77,-182.09421 61.0849,-11.82449 99.2142,-5.1666 155.2637,27.19364 61.4243,35.46328 90.711,76.94167 104.4826,145.29314 18.0771,89.26458 -12.9618,169.62297 -85.4302,218.89588 -73.355,50.80852 -154.7591,57.04414 -234.6424,18.08966 l -39.7199,-19.86115 -117.3426,75.5754 c -216.4867,139.13532 -388.233,207.87042 -571.8674,229.81622 l -28.8287,3.8304 -28.5382,111.4904 c -51.4877,202.6619 -166.033,489.7183 -228.853,570.1551 l -21.5707,28.4956 92.9508,92.5671 c 490.1461,489.7808 998.3204,1129.1984 1186.6161,1492.8214 88.9673,172.1662 192.703,435.7816 341.427,869.718 157.1932,458.2769 219.8177,619.329 310.7321,798.7618 54.726,107.3526 164.8036,305.0155 172.4816,309.4484 1.5356,0.8866 21.5388,-21.3479 44.2018,-48.1892 114.7635,-138.4886 269.9045,-281.3061 433.0713,-399.0152 l 87.1522,-62.2937 -38.1122,-59.8823 c -74.4831,-115.6881 -112.6567,-260.5761 -126.5277,-479.4742 -4.3204,-66.9898 -5.2917,-169.9242 -2.6148,-227.7555 l 4.3164,-105.0003 -38.8886,-33.7134 c -77.7771,-67.4268 -103.2628,-172.2299 -61.8543,-259.9099 31.4185,-66.8306 72.8099,-101.2863 143.9399,-121.6436 68.2645,-18.9405 107.2804,-13.8182 172.5436,23.8616 127.4552,73.5863 142.8152,254.4422 29.5407,354.8884 l -36.1037,32.3898 17.3497,55.0613 c 43.0816,129.2943 114.2241,254.3148 162.5957,282.2422 27.6408,15.9584 81.2535,2.891 114.4917,-28.0819 40.8613,-38.8568 112.5874,-168.4096 195.2305,-354.1076 37.7752,-86.7065 83.1734,-181.2968 100.0184,-210.4734 28.3706,-49.1393 30.5001,-58.1471 24.1054,-103.8124 -23.0699,-178.141 150.2608,-306.3617 312.5683,-231.0807 110.184,50.3062 157.461,175.8802 107.9226,286.5075 -24.3259,54.5458 -60.6672,90.8934 -115.7603,115.3909 -41.6523,18.949 -45.4043,21.9014 -83.3217,91.1223 -21.84,39.6012 -96.7794,149.8954 -166.8109,244.596 -140.1816,191.38 -171.4496,249.0839 -176.169,321.092 -1.4253,23.7468 3.6163,52.2509 11.2625,63.8316 20.3107,32.2011 75.5373,51.8014 154.2499,57.3204 91.0291,5.4639 225.4838,-11.0925 229.7429,-29.1083 6.626,-30.9814 51.0739,-109.7405 73.3805,-130.6452 40.8612,-38.8566 100.8857,-59.4833 159.0414,-55.5954 140.0584,9.2011 236.483,136.5336 204.6591,269.6731 -12.8953,56.0263 -20.8745,69.8468 -65.0449,110.8881 -70.7905,67.6451 -172.6644,77.4185 -263.3839,27.0891 l -48.8149,-27.1596 -82.8931,44.278 c -207.2328,110.6948 -426.5043,183.7269 -571.1462,191.3305 -41.0265,1.9066 -78.7444,1.6288 -84.1189,-1.4742 -5.3747,-3.1031 -14.003,8.2952 -25.1171,34.638 -9.2221,21.2927 -42.6514,95.1524 -74.1887,163.9619 -77.4105,171.3155 -163.9881,376.2403 -209.838,498.2106 -42.5094,112.6379 -51.0824,136.3529 -92.8326,276.0463 l -30.1289,98.2872 47.7139,52.1174 c 107.3566,117.2641 266.1092,225.2998 399.1851,271.4192 64.5591,22.9408 329.0969,82.5117 360.1102,81.99 9.57,-0.6172 14.9531,-24.1264 18.2239,-91.8521 17.6111,-300.0244 141.1558,-558.3391 363.8657,-761.4481 175.999,-159.4398 455.8739,-309.0697 600.635,-318.6522 192.2855,-13.8795 242.6132,-5.2978 356.2473,60.3093 40.6941,23.4944 83.0097,53.0442 93.4031,65.187 15.2049,17.9925 51.9724,34.1015 190.7481,84.535 370.4308,135.0407 626.2363,254.0654 789.0331,367.5075 247.8729,171.7741 304.1895,292.3299 235.8331,504.7038 -65.0148,203.0414 -290.8065,530.2906 -617.3887,895.5799 -39.1195,42.9333 -41.7793,47.5401 -48.5013,99.9649 -10.3314,72.8629 -47.8143,167.9283 -87.9711,221.5238 -100.792,137.3412 -271.0343,214.1106 -436.0192,196.6609 -34.7336,-3.6737 -84.9736,-7.0865 -112.6784,-8.7494 -26.9361,-1.2196 -101.0419,-4.0789 -162.0636,-6.5499 -210.0002,-8.6328 -389.2396,-59.9063 -561.2277,-159.2035 -154.3283,-89.1015 -272.7034,-201.466 -366.7294,-348.912 -37.7876,-58.6712 -41.5079,-62.8665 -57.8142,-55.9012 -68.9772,30.8138 -221.9313,77.639 -322.539,99.4045 -226.5296,48.367 -442.7998,64.779 -705.4628,53.3824 l -150.9582,-6.2806 -18.6585,66.0078 c -37.4359,133.9943 -68.7783,331.9071 -78.2807,490.2188 -3.1752,46.2825 0.07,58.3934 12.7111,59.5494 54.4037,6.8403 120.8547,24.7311 181.0127,48.2022 127.994,51.3751 324.0996,192.2376 477.0491,344.0148 l 63.7191,63.4054 36.9818,-7.3132 c 92.3358,-16.304 177.3011,17.3946 227.3418,90.3063 50.8085,73.355 55.4766,161.0203 11.1475,237.8006 -113.4825,196.5573 -416.2916,112.843 -412.9697,-114.5561 1.3151,-48.3801 1.3151,-48.3801 -35.777,-65.7003 -75.8385,-33.548 -208.0597,-74.0551 -258.6244,-78.679 -96.0793,-7.3558 -135.9352,27.9864 -130.4992,116.095 4.6131,75.3486 18.3063,111.9191 170.2777,458.6652 26.5633,60.3806 54.6304,128.7951 62.0072,151.4819 11.0653,34.0297 21.3394,48.1511 50.3971,66.975 99.2204,67.5221 128.1571,187.6265 68.7561,290.5117 -46.1023,79.8517 -117.209,119.6734 -204.6049,113.236 -73.987,-4.8381 -143.944,-50.3464 -178.9531,-115.6041 -27.9251,-50.9288 -33.5986,-135.0796 -13.2305,-189.8633 10.9083,-29.5329 9.4364,-44.7147 -11.4278,-100.7813 -13.3687,-35.3596 -45.139,-161.1944 -70.2366,-279.0815 -47.5122,-220.9176 -67.458,-285.6677 -105.9266,-339.6133 -47.207,-67.1808 -100.8429,-73.5778 -173.5489,-20.3472 -46.8849,33.3315 -129.6762,128.8551 -162.923,186.4402 -19.9481,34.5511 -20.1857,38.5089 -1.9409,65.4224 25.5665,37.2831 42.9947,124.1256 32.5847,165.2071 -37.8241,147.0783 -184.6125,216.9143 -318.155,152.0981 -41.6989,-19.98 -52.6538,-29.376 -81.3785,-73.6005 z"
       id="path1"
       style="fill:#f00;fill-opacity:1;stroke-width:33.9459" />
  </g>
</svg>
